<svg viewBox="0 0 580 540" width="580" height="540" xmlns="http://www.w3.org/2000/svg" font-family="Arial, Helvetica, sans-serif">
  <rect x="0" y="0" width="580" height="540" fill="#f9ddc8"/>
  <text x="20" y="34" font-size="16" font-weight="800" fill="#222">5 · About  (/about)</text>
  <g transform="translate(20,50)">
    <rect x="0" y="0" width="540" height="470" fill="#f9ddc8" stroke="#7a3b30" stroke-width="1.5"/>
    <rect x="1.5" y="1.5" width="537" height="24" fill="#e8e8e8"/>
    <circle cx="16" cy="13" r="4" fill="#c0c0c0"/><circle cx="30" cy="13" r="4" fill="#c0c0c0"/><circle cx="44" cy="13" r="4" fill="#c0c0c0"/>
    <rect x="66" y="6" width="330" height="14" rx="7" fill="#fffaf6" stroke="#c8c8c8"/>
    <text x="76" y="16" font-size="9" fill="#7a6259">marketflow.app/about</text>
    <rect x="1.5" y="25.5" width="537" height="30" fill="#e24b3d"/>
    <text x="14" y="46" font-size="13" font-weight="700" fill="#fffaf6">▢ MarketFlow</text>
    <text x="250" y="45" font-size="10" fill="#ffe1d7">Dashboard · Products · Planner · About</text>
    <circle cx="518" cy="41" r="9" fill="#b9362d"/><text x="518" y="45" font-size="9" fill="#fffaf6" text-anchor="middle">2</text>

    <rect x="14" y="66" width="120" height="16" rx="8" fill="#c9835b"/><text x="74" y="77" font-size="8" fill="#fffaf6" text-anchor="middle">Presentation guide</text>
    <text x="14" y="104" font-size="16" font-weight="800" fill="#261715">How the app is built</text>
    <text x="14" y="120" font-size="9" fill="#7a6259">explains the project for the 5–10 minute presentation</text>

    <rect x="14" y="134" width="250" height="146" rx="5" fill="#fffaf6" stroke="#efc8b4"/><text x="26" y="156" font-size="12" font-weight="700" fill="#261715">Process</text><rect x="26" y="168" width="220" height="8" rx="3" fill="#f1d8c6"/><rect x="26" y="184" width="210" height="8" rx="3" fill="#f1d8c6"/><rect x="26" y="200" width="180" height="8" rx="3" fill="#f1d8c6"/>
    <rect x="276" y="134" width="250" height="146" rx="5" fill="#fffaf6" stroke="#efc8b4"/><text x="288" y="156" font-size="12" font-weight="700" fill="#261715">Data</text><rect x="288" y="168" width="220" height="8" rx="3" fill="#f1d8c6"/><rect x="288" y="184" width="210" height="8" rx="3" fill="#f1d8c6"/><rect x="288" y="200" width="180" height="8" rx="3" fill="#f1d8c6"/>
    <rect x="14" y="296" width="250" height="146" rx="5" fill="#fffaf6" stroke="#efc8b4"/><text x="26" y="318" font-size="12" font-weight="700" fill="#261715">Interaction</text><rect x="26" y="330" width="220" height="8" rx="3" fill="#f1d8c6"/><rect x="26" y="346" width="210" height="8" rx="3" fill="#f1d8c6"/><rect x="26" y="362" width="180" height="8" rx="3" fill="#f1d8c6"/>
    <rect x="276" y="296" width="250" height="146" rx="5" fill="#fffaf6" stroke="#efc8b4"/><text x="288" y="318" font-size="12" font-weight="700" fill="#261715">Hooks</text><rect x="288" y="330" width="220" height="8" rx="3" fill="#f1d8c6"/><rect x="288" y="346" width="210" height="8" rx="3" fill="#f1d8c6"/><rect x="288" y="362" width="180" height="8" rx="3" fill="#f1d8c6"/>
  </g>
</svg>
