<svg viewBox="0 0 580 540" width="580" height="540" xmlns="http://www.w3.org/2000/svg" font-family="Arial, Helvetica, sans-serif">
  <rect x="0" y="0" width="580" height="540" fill="#ffffff"/>
  <text x="20" y="34" font-size="16" font-weight="800" fill="#222">1 · Dashboard  (/)</text>
  <g transform="translate(20,50)">
    <rect x="0" y="0" width="540" height="470" fill="#ffffff" stroke="#2b2b2b" stroke-width="1.5"/>
    <rect x="1.5" y="1.5" width="537" height="24" fill="#e8e8e8"/>
    <circle cx="16" cy="13" r="4" fill="#c0c0c0"/><circle cx="30" cy="13" r="4" fill="#c0c0c0"/><circle cx="44" cy="13" r="4" fill="#c0c0c0"/>
    <rect x="66" y="6" width="330" height="14" rx="7" fill="#fff" stroke="#c8c8c8"/>
    <text x="76" y="16" font-size="9" fill="#888">marketflow.app/</text>
    <rect x="1.5" y="25.5" width="537" height="30" fill="#3a3a3a"/>
    <text x="14" y="46" font-size="13" font-weight="700" fill="#fff">▢ MarketFlow</text>
    <text x="250" y="45" font-size="10" fill="#cfcfcf">Dashboard · Products · Planner · About</text>
    <circle cx="518" cy="41" r="9" fill="#5a5a5a"/><text x="518" y="45" font-size="9" fill="#fff" text-anchor="middle">2</text>

    <rect x="14" y="64" width="512" height="106" rx="5" fill="#fafafa" stroke="#cccccc"/>
    <text x="26" y="86" font-size="13" font-weight="700" fill="#333">Product discovery, routed in React</text>
    <text x="26" y="104" font-size="9" fill="#888">live API data · shared via Context · Material UI</text>
    <rect x="26" y="118" width="120" height="26" rx="4" fill="#4a4a4a"/><text x="86" y="135" font-size="9" fill="#fff" text-anchor="middle">Browse products →</text>
    <rect x="156" y="118" width="96" height="26" rx="4" fill="#fff" stroke="#7a7a7a"/><text x="204" y="135" font-size="9" fill="#4a4a4a" text-anchor="middle">View planner</text>
    <rect x="364" y="74" width="150" height="86" rx="4" fill="#fff" stroke="#cccccc"/>
    <text x="372" y="90" font-size="9" font-weight="700" fill="#444">Assignment signal</text>
    <text x="372" y="106" font-size="8" fill="#888">• 20 products (Axios)</text>
    <text x="372" y="119" font-size="8" fill="#888">• routed views</text>
    <text x="372" y="132" font-size="8" fill="#888">• saved via Context</text>
    <rect x="372" y="144" width="134" height="7" rx="3" fill="#dddddd"/><rect x="372" y="144" width="44" height="7" rx="3" fill="#8a8a8a"/>

    <rect x="14" y="178" width="164" height="52" rx="5" fill="#f5f5f5" stroke="#cccccc"/><text x="24" y="196" font-size="8" fill="#888">Products loaded</text><text x="24" y="218" font-size="16" font-weight="800" fill="#333">20</text>
    <rect x="190" y="178" width="160" height="52" rx="5" fill="#f5f5f5" stroke="#cccccc"/><text x="200" y="196" font-size="8" fill="#888">Categories</text><text x="200" y="218" font-size="16" font-weight="800" fill="#333">4</text>
    <rect x="362" y="178" width="164" height="52" rx="5" fill="#f5f5f5" stroke="#cccccc"/><text x="372" y="196" font-size="8" fill="#888">Saved items</text><text x="372" y="218" font-size="16" font-weight="800" fill="#333">2</text>

    <text x="14" y="256" font-size="11" font-weight="700" fill="#333">Shop by category</text>
    <g fill="#f0f0f0" stroke="#bbbbbb">
      <circle cx="60" cy="292" r="22"/><circle cx="150" cy="292" r="22"/><circle cx="240" cy="292" r="22"/><circle cx="330" cy="292" r="22"/><circle cx="420" cy="292" r="22"/>
    </g>
    <g font-size="8" fill="#777" text-anchor="middle">
      <text x="60" y="328">Electronics</text><text x="150" y="328">Jewelry</text><text x="240" y="328">Men</text><text x="330" y="328">Women</text><text x="420" y="328">New / Top</text>
    </g>

    <text x="14" y="356" font-size="11" font-weight="700" fill="#333">Featured products (rating 4.0+)</text>
    <rect x="14" y="366" width="164" height="96" rx="5" fill="#fff" stroke="#cccccc"/>
    <rect x="22" y="374" width="148" height="34" rx="3" fill="#efefef" stroke="#b5b5b5" stroke-dasharray="5 3"/><text x="96" y="395" font-size="8" fill="#999" text-anchor="middle">IMG</text>
    <rect x="22" y="414" width="110" height="8" rx="3" fill="#dcdcdc"/><text x="22" y="436" font-size="9" font-weight="700" fill="#444">$109  ★★★★</text>
    <rect x="190" y="366" width="160" height="96" rx="5" fill="#fff" stroke="#cccccc"/>
    <rect x="198" y="374" width="144" height="34" rx="3" fill="#efefef" stroke="#b5b5b5" stroke-dasharray="5 3"/><text x="270" y="395" font-size="8" fill="#999" text-anchor="middle">IMG</text>
    <rect x="198" y="414" width="110" height="8" rx="3" fill="#dcdcdc"/><text x="198" y="436" font-size="9" font-weight="700" fill="#444">$ 64  ★★★★</text>
    <rect x="362" y="366" width="164" height="96" rx="5" fill="#fff" stroke="#cccccc"/>
    <rect x="370" y="374" width="148" height="34" rx="3" fill="#efefef" stroke="#b5b5b5" stroke-dasharray="5 3"/><text x="444" y="395" font-size="8" fill="#999" text-anchor="middle">IMG</text>
    <rect x="370" y="414" width="110" height="8" rx="3" fill="#dcdcdc"/><text x="370" y="436" font-size="9" font-weight="700" fill="#444">$ 22  ★★★★</text>
  </g>
</svg>
