<svg viewBox="0 0 580 540" width="580" height="540" xmlns="http://www.w3.org/2000/svg" font-family="Arial, Helvetica, sans-serif">
  <rect x="0" y="0" width="580" height="540" fill="#071126"/>
  <text x="20" y="34" font-size="16" font-weight="800" fill="#f6f8ff">1 · Dashboard  (/)</text>
  <g transform="translate(20,50)">
    <rect x="0" y="0" width="540" height="470" fill="#071126" stroke="#aebbd3" stroke-width="1.5"/>
    <rect x="1.5" y="1.5" width="537" height="24" fill="#101d38"/>
    <circle cx="16" cy="13" r="4" fill="#aebbd3"/><circle cx="30" cy="13" r="4" fill="#aebbd3"/><circle cx="44" cy="13" r="4" fill="#aebbd3"/>
    <rect x="66" y="6" width="330" height="14" rx="7" fill="#101d38" stroke="#c8c8c8"/>
    <text x="76" y="16" font-size="9" fill="#aebbd3">blockbuster-plus.local/</text>
    <rect x="1.5" y="25.5" width="537" height="30" fill="#1757d1"/>
    <text x="14" y="46" font-size="13" font-weight="700" fill="#f6f8ff">▢ Blockbuster+</text>
    <text x="250" y="45" font-size="10" fill="#f6f8ff">Dashboard · Films · Rental Bag · About</text>
    <circle cx="518" cy="41" r="9" fill="#0a2c74"/><text x="518" y="45" font-size="9" fill="#f6f8ff" text-anchor="middle">2</text>

    <rect x="14" y="64" width="512" height="106" rx="5" fill="#101d38" stroke="#334464"/>
    <text x="26" y="86" font-size="13" font-weight="700" fill="#f6f8ff">Film discovery, routed in React</text>
    <text x="26" y="104" font-size="9" fill="#aebbd3">live API data · shared via Context · Material UI</text>
    <rect x="26" y="118" width="120" height="26" rx="4" fill="#1757d1"/><text x="86" y="135" font-size="9" fill="#f6f8ff" text-anchor="middle">Browse films →</text>
    <rect x="156" y="118" width="96" height="26" rx="4" fill="#101d38" stroke="#1757d1"/><text x="204" y="135" font-size="9" fill="#1757d1" text-anchor="middle">View rental bag</text>
    <rect x="364" y="74" width="150" height="86" rx="4" fill="#101d38" stroke="#334464"/>
    <text x="372" y="90" font-size="9" font-weight="700" fill="#f6f8ff">Assignment signal</text>
    <text x="372" y="106" font-size="8" fill="#aebbd3">• 20 films (Axios)</text>
    <text x="372" y="119" font-size="8" fill="#aebbd3">• routed views</text>
    <text x="372" y="132" font-size="8" fill="#aebbd3">• saved via Context</text>
    <rect x="372" y="144" width="134" height="7" rx="3" fill="#233658"/><rect x="372" y="144" width="44" height="7" rx="3" fill="#1757d1"/>

    <rect x="14" y="178" width="164" height="52" rx="5" fill="#101d38" stroke="#334464"/><text x="24" y="196" font-size="8" fill="#aebbd3">Films loaded</text><text x="24" y="218" font-size="16" font-weight="800" fill="#f6f8ff">20</text>
    <rect x="190" y="178" width="160" height="52" rx="5" fill="#101d38" stroke="#334464"/><text x="200" y="196" font-size="8" fill="#aebbd3">Genres</text><text x="200" y="218" font-size="16" font-weight="800" fill="#f6f8ff">4</text>
    <rect x="362" y="178" width="164" height="52" rx="5" fill="#101d38" stroke="#334464"/><text x="372" y="196" font-size="8" fill="#aebbd3">Saved items</text><text x="372" y="218" font-size="16" font-weight="800" fill="#f6f8ff">2</text>

    <text x="14" y="256" font-size="11" font-weight="700" fill="#f6f8ff">Shop by category</text>
    <g fill="#0c1830" stroke="#334464">
      <circle cx="60" cy="292" r="22"/><circle cx="150" cy="292" r="22"/><circle cx="240" cy="292" r="22"/><circle cx="330" cy="292" r="22"/><circle cx="420" cy="292" r="22"/>
    </g>
    <g font-size="8" fill="#aebbd3" text-anchor="middle">
      <text x="60" y="328">Electronics</text><text x="150" y="328">Jewelry</text><text x="240" y="328">Men</text><text x="330" y="328">Women</text><text x="420" y="328">New / Top</text>
    </g>

    <text x="14" y="356" font-size="11" font-weight="700" fill="#f6f8ff">Featured films (rating 4.0+)</text>
    <rect x="14" y="366" width="164" height="96" rx="5" fill="#101d38" stroke="#334464"/>
    <rect x="22" y="374" width="148" height="34" rx="3" fill="#0c1830" stroke="#334464" stroke-dasharray="5 3"/><text x="96" y="395" font-size="8" fill="#aebbd3" text-anchor="middle">IMG</text>
    <rect x="22" y="414" width="110" height="8" rx="3" fill="#233658"/><text x="22" y="436" font-size="9" font-weight="700" fill="#f6f8ff">$109  ★★★★</text>
    <rect x="190" y="366" width="160" height="96" rx="5" fill="#101d38" stroke="#334464"/>
    <rect x="198" y="374" width="144" height="34" rx="3" fill="#0c1830" stroke="#334464" stroke-dasharray="5 3"/><text x="270" y="395" font-size="8" fill="#aebbd3" text-anchor="middle">IMG</text>
    <rect x="198" y="414" width="110" height="8" rx="3" fill="#233658"/><text x="198" y="436" font-size="9" font-weight="700" fill="#f6f8ff">$ 64  ★★★★</text>
    <rect x="362" y="366" width="164" height="96" rx="5" fill="#101d38" stroke="#334464"/>
    <rect x="370" y="374" width="148" height="34" rx="3" fill="#0c1830" stroke="#334464" stroke-dasharray="5 3"/><text x="444" y="395" font-size="8" fill="#aebbd3" text-anchor="middle">IMG</text>
    <rect x="370" y="414" width="110" height="8" rx="3" fill="#233658"/><text x="370" y="436" font-size="9" font-weight="700" fill="#f6f8ff">$ 22  ★★★★</text>
  </g>
</svg>
