<svg viewBox="0 0 580 540" width="580" height="540" xmlns="http://www.w3.org/2000/svg" font-family="Arial, Helvetica, sans-serif">
  <rect x="0" y="0" width="580" height="540" fill="#071126"/>
  <text x="20" y="34" font-size="16" font-weight="800" fill="#f6f8ff">3 · Film Detail  (/films/:filmId)</text>
  <g transform="translate(20,50)">
    <rect x="0" y="0" width="540" height="470" fill="#071126" stroke="#aebbd3" stroke-width="1.5"/>
    <rect x="1.5" y="1.5" width="537" height="24" fill="#101d38"/>
    <circle cx="16" cy="13" r="4" fill="#aebbd3"/><circle cx="30" cy="13" r="4" fill="#aebbd3"/><circle cx="44" cy="13" r="4" fill="#aebbd3"/>
    <rect x="66" y="6" width="330" height="14" rx="7" fill="#101d38" stroke="#c8c8c8"/>
    <text x="76" y="16" font-size="9" fill="#aebbd3">blockbuster-plus.local/films/7   ← dynamic route param</text>
    <rect x="1.5" y="25.5" width="537" height="30" fill="#1757d1"/>
    <text x="14" y="46" font-size="13" font-weight="700" fill="#f6f8ff">▢ Blockbuster+</text>
    <text x="250" y="45" font-size="10" fill="#f6f8ff">Dashboard · Films · Rental Bag · About</text>
    <circle cx="518" cy="41" r="9" fill="#0a2c74"/><text x="518" y="45" font-size="9" fill="#f6f8ff" text-anchor="middle">2</text>

    <rect x="14" y="66" width="140" height="24" rx="4" fill="#101d38" stroke="#1757d1"/><text x="84" y="82" font-size="9" fill="#1757d1" text-anchor="middle">← Back to films</text>

    <rect x="14" y="100" width="512" height="150" rx="5" fill="#101d38" stroke="#334464"/>
    <rect x="26" y="112" width="180" height="126" rx="4" fill="#0c1830" stroke="#334464" stroke-dasharray="5 3"/>
    <line x1="26" y1="112" x2="206" y2="238" stroke="#334464"/><line x1="206" y1="112" x2="26" y2="238" stroke="#334464"/>
    <text x="116" y="178" font-size="9" fill="#aebbd3" text-anchor="middle">PRODUCT IMG</text>
    <rect x="222" y="116" width="74" height="16" rx="8" fill="#eaddd1"/><text x="259" y="127" font-size="8" fill="#aebbd3" text-anchor="middle">category</text>
    <rect x="222" y="140" width="270" height="12" rx="3" fill="#233658"/><rect x="222" y="156" width="190" height="12" rx="3" fill="#233658"/>
    <text x="222" y="186" font-size="10" fill="#aebbd3">★★★★☆  4.1 from 259 reviews</text>
    <text x="222" y="208" font-size="16" font-weight="800" fill="#f6f8ff">$109.95</text>
    <rect x="222" y="216" width="270" height="7" rx="3" fill="#233658"/>
    <rect x="222" y="224" width="200" height="20" rx="4" fill="#1757d1"/><text x="322" y="238" font-size="9" fill="#f6f8ff" text-anchor="middle">▢ Save to rental bag</text>

    <rect x="14" y="262" width="512" height="190" rx="5" fill="#101d38" stroke="#334464"/>
    <rect x="26" y="274" width="120" height="16" rx="8" fill="#eaddd1"/><text x="86" y="285" font-size="8" fill="#aebbd3" text-anchor="middle">Interactive review</text>
    <text x="26" y="312" font-size="13" font-weight="700" fill="#f6f8ff">Leave your review</text>
    <text x="26" y="330" font-size="8" fill="#aebbd3">user-controlled with</text>
    <text x="26" y="343" font-size="8" fill="#aebbd3">React state, saved to</text>
    <text x="26" y="356" font-size="8" fill="#aebbd3">localStorage (separate</text>
    <text x="26" y="369" font-size="8" fill="#aebbd3">from the API rating).</text>
    <text x="240" y="298" font-size="9" font-weight="700" fill="#f6f8ff">Your rating</text>
    <text x="240" y="318" font-size="18" fill="#c29a86">★ ★ ★ ★ ★</text>
    <rect x="240" y="330" width="270" height="56" rx="4" fill="#101d38" stroke="#c29a86"/><text x="250" y="348" font-size="9" fill="#aebbd3">Review note (multiline)…</text>
    <rect x="240" y="396" width="110" height="24" rx="4" fill="#1757d1"/><text x="295" y="412" font-size="9" fill="#f6f8ff" text-anchor="middle">Save review</text>
    <text x="240" y="440" font-size="8" fill="#2e7d32">✓ Alert: "Review saved: 4 stars …"</text>
  </g>
</svg>
