<svg viewBox="0 0 1180 1700" width="1180" height="1700" xmlns="http://www.w3.org/2000/svg" font-family="Arial, Helvetica, sans-serif">
  <rect x="0" y="0" width="1180" height="1700" fill="#f9ddc8"/>

  <!-- ===== TITLE ===== -->
  <text x="30" y="44" font-size="24" font-weight="800" fill="#222">MarketFlow — Wireframes</text>
  <text x="30" y="68" font-size="13" fill="#7a6259">Mini Project 2 · React product-discovery SPA · React Router · MUI · Fake Store API · by Joshua Ojeda</text>
  <line x1="30" y1="84" x2="1150" y2="84" stroke="#f1d8c6" stroke-width="1"/>

  <!-- ============================================================ -->
  <!-- 1 · DASHBOARD  (/)                                            -->
  <!-- ============================================================ -->
  <text x="30" y="120" font-size="13" font-weight="700" fill="#261715">1 · Dashboard  (/)</text>
  <g transform="translate(30,130)">
    <rect x="0" y="0" width="540" height="470" fill="#f9ddc8" stroke="#7a3b30" stroke-width="1.5"/>
    <!-- browser bar -->
    <rect x="1.5" y="1.5" width="537" height="24" fill="#e8e8e8"/>
    <circle cx="16" cy="13" r="4" fill="#c0c0c0"/><circle cx="30" cy="13" r="4" fill="#c0c0c0"/><circle cx="44" cy="13" r="4" fill="#c0c0c0"/>
    <rect x="66" y="6" width="330" height="14" rx="7" fill="#fffaf6" stroke="#c8c8c8"/>
    <text x="76" y="16" font-size="9" fill="#7a6259">marketflow.app/</text>
    <!-- app bar -->
    <rect x="1.5" y="25.5" width="537" height="30" fill="#e24b3d"/>
    <text x="14" y="46" font-size="13" font-weight="700" fill="#fffaf6">▢ MarketFlow</text>
    <text x="250" y="45" font-size="10" fill="#ffe1d7">Dashboard · Products · Planner · About</text>
    <circle cx="518" cy="41" r="9" fill="#b9362d"/><text x="518" y="45" font-size="9" fill="#fffaf6" text-anchor="middle">2</text>

    <!-- hero -->
    <rect x="14" y="64" width="512" height="106" rx="5" fill="#fffaf6" stroke="#efc8b4"/>
    <text x="26" y="86" font-size="13" font-weight="700" fill="#261715">Product discovery, routed in React</text>
    <text x="26" y="104" font-size="9" fill="#7a6259">live API data · shared via Context · Material UI</text>
    <rect x="26" y="118" width="120" height="26" rx="4" fill="#e24b3d"/><text x="86" y="135" font-size="9" fill="#fffaf6" text-anchor="middle">Browse products →</text>
    <rect x="156" y="118" width="96" height="26" rx="4" fill="#fffaf6" stroke="#e24b3d"/><text x="204" y="135" font-size="9" fill="#e24b3d" text-anchor="middle">View planner</text>
    <rect x="364" y="74" width="150" height="86" rx="4" fill="#fffaf6" stroke="#efc8b4"/>
    <text x="372" y="90" font-size="9" font-weight="700" fill="#4a3a34">Assignment signal</text>
    <text x="372" y="106" font-size="8" fill="#7a6259">• 20 products (Axios)</text>
    <text x="372" y="119" font-size="8" fill="#7a6259">• routed views</text>
    <text x="372" y="132" font-size="8" fill="#7a6259">• saved via Context</text>
    <rect x="372" y="144" width="134" height="7" rx="3" fill="#f1d8c6"/><rect x="372" y="144" width="44" height="7" rx="3" fill="#e24b3d"/>

    <!-- stat cards -->
    <rect x="14" y="178" width="164" height="52" rx="5" fill="#fffaf6" stroke="#efc8b4"/><text x="24" y="196" font-size="8" fill="#7a6259">Products loaded</text><text x="24" y="218" font-size="16" font-weight="800" fill="#261715">20</text>
    <rect x="190" y="178" width="160" height="52" rx="5" fill="#fffaf6" stroke="#efc8b4"/><text x="200" y="196" font-size="8" fill="#7a6259">Categories</text><text x="200" y="218" font-size="16" font-weight="800" fill="#261715">4</text>
    <rect x="362" y="178" width="164" height="52" rx="5" fill="#fffaf6" stroke="#efc8b4"/><text x="372" y="196" font-size="8" fill="#7a6259">Saved items</text><text x="372" y="218" font-size="16" font-weight="800" fill="#261715">2</text>

    <!-- shop by category -->
    <text x="14" y="256" font-size="11" font-weight="700" fill="#261715">Shop by category</text>
    <g fill="#fff3eb" stroke="#e6c3ad">
      <circle cx="60" cy="292" r="22"/><circle cx="150" cy="292" r="22"/><circle cx="240" cy="292" r="22"/><circle cx="330" cy="292" r="22"/><circle cx="420" cy="292" r="22"/>
    </g>
    <g font-size="8" fill="#7a6259" text-anchor="middle">
      <text x="60" y="328">Electronics</text><text x="150" y="328">Jewelry</text><text x="240" y="328">Men</text><text x="330" y="328">Women</text><text x="420" y="328">New / Top</text>
    </g>

    <!-- featured products -->
    <text x="14" y="356" font-size="11" font-weight="700" fill="#261715">Featured products (rating 4.0+)</text>
    <g>
      <rect x="14" y="366" width="164" height="96" rx="5" fill="#fffaf6" stroke="#efc8b4"/>
      <rect x="22" y="374" width="148" height="34" rx="3" fill="#fff3eb" stroke="#e6c3ad" stroke-dasharray="5 3"/><text x="96" y="395" font-size="8" fill="#b08a76" text-anchor="middle">IMG</text>
      <rect x="22" y="414" width="110" height="8" rx="3" fill="#f1d8c6"/><text x="22" y="436" font-size="9" font-weight="700" fill="#4a3a34">$109  ★★★★</text>
      <rect x="190" y="366" width="160" height="96" rx="5" fill="#fffaf6" stroke="#efc8b4"/>
      <rect x="198" y="374" width="144" height="34" rx="3" fill="#fff3eb" stroke="#e6c3ad" stroke-dasharray="5 3"/><text x="270" y="395" font-size="8" fill="#b08a76" text-anchor="middle">IMG</text>
      <rect x="198" y="414" width="110" height="8" rx="3" fill="#f1d8c6"/><text x="198" y="436" font-size="9" font-weight="700" fill="#4a3a34">$ 64  ★★★★</text>
      <rect x="362" y="366" width="164" height="96" rx="5" fill="#fffaf6" stroke="#efc8b4"/>
      <rect x="370" y="374" width="148" height="34" rx="3" fill="#fff3eb" stroke="#e6c3ad" stroke-dasharray="5 3"/><text x="444" y="395" font-size="8" fill="#b08a76" text-anchor="middle">IMG</text>
      <rect x="370" y="414" width="110" height="8" rx="3" fill="#f1d8c6"/><text x="370" y="436" font-size="9" font-weight="700" fill="#4a3a34">$ 22  ★★★★</text>
    </g>
  </g>

  <!-- ============================================================ -->
  <!-- 2 · PRODUCTS  (/products)                                     -->
  <!-- ============================================================ -->
  <text x="610" y="120" font-size="13" font-weight="700" fill="#261715">2 · Products  (/products)</text>
  <g transform="translate(610,130)">
    <rect x="0" y="0" width="540" height="470" fill="#f9ddc8" stroke="#7a3b30" stroke-width="1.5"/>
    <rect x="1.5" y="1.5" width="537" height="24" fill="#e8e8e8"/>
    <circle cx="16" cy="13" r="4" fill="#c0c0c0"/><circle cx="30" cy="13" r="4" fill="#c0c0c0"/><circle cx="44" cy="13" r="4" fill="#c0c0c0"/>
    <rect x="66" y="6" width="330" height="14" rx="7" fill="#fffaf6" stroke="#c8c8c8"/>
    <text x="76" y="16" font-size="9" fill="#7a6259">marketflow.app/products?category=…&amp;sort=…</text>
    <rect x="1.5" y="25.5" width="537" height="30" fill="#e24b3d"/>
    <text x="14" y="46" font-size="13" font-weight="700" fill="#fffaf6">▢ MarketFlow</text>
    <text x="250" y="45" font-size="10" fill="#ffe1d7">Dashboard · Products · Planner · About</text>
    <circle cx="518" cy="41" r="9" fill="#b9362d"/><text x="518" y="45" font-size="9" fill="#fffaf6" text-anchor="middle">2</text>

    <text x="14" y="80" font-size="16" font-weight="800" fill="#261715">Products</text>
    <text x="14" y="96" font-size="9" fill="#7a6259">search · category filter · sort · save  (page state via useState; data via useProducts)</text>

    <!-- controls -->
    <rect x="14" y="106" width="250" height="32" rx="4" fill="#fffaf6" stroke="#c29a86"/><text x="26" y="126" font-size="9" fill="#7a6259">🔍  Search products</text>
    <rect x="274" y="106" width="120" height="32" rx="4" fill="#fffaf6" stroke="#c29a86"/><text x="286" y="126" font-size="9" fill="#7a6259">Category ▼</text>
    <rect x="402" y="106" width="124" height="32" rx="4" fill="#fffaf6" stroke="#c29a86"/><text x="414" y="126" font-size="9" fill="#7a6259">Sort ▼</text>
    <text x="14" y="158" font-size="9" fill="#7a6259">Showing 12 of 20 products   [chips: Search · Category · Sort]</text>
    <rect x="440" y="146" width="86" height="22" rx="4" fill="#fffaf6" stroke="#e24b3d"/><text x="483" y="161" font-size="9" fill="#e24b3d" text-anchor="middle">Reset filters</text>

    <!-- stat cards -->
    <rect x="14" y="176" width="164" height="44" rx="5" fill="#fffaf6" stroke="#efc8b4"/><text x="24" y="192" font-size="8" fill="#7a6259">Visible results</text><text x="24" y="211" font-size="14" font-weight="800" fill="#261715">12</text>
    <rect x="190" y="176" width="160" height="44" rx="5" fill="#fffaf6" stroke="#efc8b4"/><text x="200" y="192" font-size="8" fill="#7a6259">Avg visible price</text><text x="200" y="211" font-size="14" font-weight="800" fill="#261715">$54.20</text>
    <rect x="362" y="176" width="164" height="44" rx="5" fill="#fffaf6" stroke="#efc8b4"/><text x="372" y="192" font-size="8" fill="#7a6259">Saved shortlist</text><text x="372" y="211" font-size="14" font-weight="800" fill="#261715">2</text>

    <!-- product grid label -->
    <text x="14" y="240" font-size="10" font-weight="700" fill="#7a6259">ProductGrid → ProductCard ✕ N  (responsive 1 / 2 / 3 columns)</text>
    <!-- grid 3x2 -->
    <g>
      <!-- row1 -->
      <rect x="14" y="248" width="164" height="100" rx="5" fill="#fffaf6" stroke="#efc8b4"/><rect x="22" y="256" width="148" height="40" rx="3" fill="#fff3eb" stroke="#e6c3ad" stroke-dasharray="5 3"/><text x="96" y="280" font-size="8" fill="#b08a76" text-anchor="middle">IMG</text><rect x="22" y="302" width="120" height="8" rx="3" fill="#f1d8c6"/><text x="22" y="326" font-size="9" font-weight="700" fill="#4a3a34">$  ★★★★  ♡</text><text x="118" y="342" font-size="8" fill="#7a6259">View ▸</text>
      <rect x="190" y="248" width="160" height="100" rx="5" fill="#fffaf6" stroke="#efc8b4"/><rect x="198" y="256" width="144" height="40" rx="3" fill="#fff3eb" stroke="#e6c3ad" stroke-dasharray="5 3"/><text x="270" y="280" font-size="8" fill="#b08a76" text-anchor="middle">IMG</text><rect x="198" y="302" width="120" height="8" rx="3" fill="#f1d8c6"/><text x="198" y="326" font-size="9" font-weight="700" fill="#4a3a34">$  ★★★★  ♡</text><text x="292" y="342" font-size="8" fill="#7a6259">View ▸</text>
      <rect x="362" y="248" width="164" height="100" rx="5" fill="#fffaf6" stroke="#efc8b4"/><rect x="370" y="256" width="148" height="40" rx="3" fill="#fff3eb" stroke="#e6c3ad" stroke-dasharray="5 3"/><text x="444" y="280" font-size="8" fill="#b08a76" text-anchor="middle">IMG</text><rect x="370" y="302" width="120" height="8" rx="3" fill="#f1d8c6"/><text x="370" y="326" font-size="9" font-weight="700" fill="#4a3a34">$  ★★★★  ♡</text><text x="466" y="342" font-size="8" fill="#7a6259">View ▸</text>
      <!-- row2 -->
      <rect x="14" y="356" width="164" height="100" rx="5" fill="#fffaf6" stroke="#efc8b4"/><rect x="22" y="364" width="148" height="40" rx="3" fill="#fff3eb" stroke="#e6c3ad" stroke-dasharray="5 3"/><text x="96" y="388" font-size="8" fill="#b08a76" text-anchor="middle">IMG</text><rect x="22" y="410" width="120" height="8" rx="3" fill="#f1d8c6"/><text x="22" y="434" font-size="9" font-weight="700" fill="#4a3a34">$  ★★★★  ♡</text><text x="118" y="450" font-size="8" fill="#7a6259">View ▸</text>
      <rect x="190" y="356" width="160" height="100" rx="5" fill="#fffaf6" stroke="#efc8b4"/><rect x="198" y="364" width="144" height="40" rx="3" fill="#fff3eb" stroke="#e6c3ad" stroke-dasharray="5 3"/><text x="270" y="388" font-size="8" fill="#b08a76" text-anchor="middle">IMG</text><rect x="198" y="410" width="120" height="8" rx="3" fill="#f1d8c6"/><text x="198" y="434" font-size="9" font-weight="700" fill="#4a3a34">$  ★★★★  ♡</text><text x="292" y="450" font-size="8" fill="#7a6259">View ▸</text>
      <rect x="362" y="356" width="164" height="100" rx="5" fill="#fffaf6" stroke="#efc8b4"/><rect x="370" y="364" width="148" height="40" rx="3" fill="#fff3eb" stroke="#e6c3ad" stroke-dasharray="5 3"/><text x="444" y="388" font-size="8" fill="#b08a76" text-anchor="middle">IMG</text><rect x="370" y="410" width="120" height="8" rx="3" fill="#f1d8c6"/><text x="370" y="434" font-size="9" font-weight="700" fill="#4a3a34">$  ★★★★  ♡</text><text x="466" y="450" font-size="8" fill="#7a6259">View ▸</text>
    </g>
  </g>

  <!-- ============================================================ -->
  <!-- 3 · PRODUCT DETAIL  (/products/:productId)                    -->
  <!-- ============================================================ -->
  <text x="30" y="640" font-size="13" font-weight="700" fill="#261715">3 · Product Detail  (/products/:productId)</text>
  <g transform="translate(30,650)">
    <rect x="0" y="0" width="540" height="470" fill="#f9ddc8" stroke="#7a3b30" stroke-width="1.5"/>
    <rect x="1.5" y="1.5" width="537" height="24" fill="#e8e8e8"/>
    <circle cx="16" cy="13" r="4" fill="#c0c0c0"/><circle cx="30" cy="13" r="4" fill="#c0c0c0"/><circle cx="44" cy="13" r="4" fill="#c0c0c0"/>
    <rect x="66" y="6" width="330" height="14" rx="7" fill="#fffaf6" stroke="#c8c8c8"/>
    <text x="76" y="16" font-size="9" fill="#7a6259">marketflow.app/products/7   ← dynamic route param</text>
    <rect x="1.5" y="25.5" width="537" height="30" fill="#e24b3d"/>
    <text x="14" y="46" font-size="13" font-weight="700" fill="#fffaf6">▢ MarketFlow</text>
    <text x="250" y="45" font-size="10" fill="#ffe1d7">Dashboard · Products · Planner · About</text>
    <circle cx="518" cy="41" r="9" fill="#b9362d"/><text x="518" y="45" font-size="9" fill="#fffaf6" text-anchor="middle">2</text>

    <rect x="14" y="66" width="140" height="24" rx="4" fill="#fffaf6" stroke="#e24b3d"/><text x="84" y="82" font-size="9" fill="#e24b3d" text-anchor="middle">← Back to products</text>

    <!-- main detail card -->
    <rect x="14" y="100" width="512" height="150" rx="5" fill="#fffaf6" stroke="#efc8b4"/>
    <rect x="26" y="112" width="180" height="126" rx="4" fill="#fff3eb" stroke="#e6c3ad" stroke-dasharray="5 3"/>
    <line x1="26" y1="112" x2="206" y2="238" stroke="#e6c3ad"/><line x1="206" y1="112" x2="26" y2="238" stroke="#e6c3ad"/>
    <text x="116" y="178" font-size="9" fill="#b08a76" text-anchor="middle">PRODUCT IMG</text>
    <rect x="222" y="116" width="74" height="16" rx="8" fill="#eaddd1"/><text x="259" y="127" font-size="8" fill="#7a6259" text-anchor="middle">category</text>
    <rect x="222" y="140" width="270" height="12" rx="3" fill="#f1d8c6"/><rect x="222" y="156" width="190" height="12" rx="3" fill="#f1d8c6"/>
    <text x="222" y="186" font-size="10" fill="#7a6259">★★★★☆  4.1 from 259 reviews</text>
    <text x="222" y="208" font-size="16" font-weight="800" fill="#261715">$109.95</text>
    <rect x="222" y="216" width="270" height="7" rx="3" fill="#f1d8c6"/>
    <rect x="222" y="224" width="200" height="20" rx="4" fill="#e24b3d"/><text x="322" y="238" font-size="9" fill="#fffaf6" text-anchor="middle">▢ Save to planner</text>

    <!-- review form -->
    <rect x="14" y="262" width="512" height="190" rx="5" fill="#fffaf6" stroke="#efc8b4"/>
    <rect x="26" y="274" width="120" height="16" rx="8" fill="#eaddd1"/><text x="86" y="285" font-size="8" fill="#7a6259" text-anchor="middle">Interactive review</text>
    <text x="26" y="312" font-size="13" font-weight="700" fill="#261715">Leave your review</text>
    <text x="26" y="330" font-size="8" fill="#7a6259">user-controlled with</text>
    <text x="26" y="343" font-size="8" fill="#7a6259">React state, saved to</text>
    <text x="26" y="356" font-size="8" fill="#7a6259">localStorage (separate</text>
    <text x="26" y="369" font-size="8" fill="#7a6259">from the API rating).</text>
    <text x="240" y="298" font-size="9" font-weight="700" fill="#4a3a34">Your rating</text>
    <text x="240" y="318" font-size="18" fill="#c29a86">★ ★ ★ ★ ★</text>
    <rect x="240" y="330" width="270" height="56" rx="4" fill="#fffaf6" stroke="#c29a86"/><text x="250" y="348" font-size="9" fill="#7a6259">Review note (multiline)…</text>
    <rect x="240" y="396" width="110" height="24" rx="4" fill="#e24b3d"/><text x="295" y="412" font-size="9" fill="#fffaf6" text-anchor="middle">Save review</text>
    <text x="240" y="440" font-size="8" fill="#2e7d32">✓ Alert: "Review saved: 4 stars …"</text>
  </g>

  <!-- ============================================================ -->
  <!-- 4 · PLANNER  (/planner)                                       -->
  <!-- ============================================================ -->
  <text x="610" y="640" font-size="13" font-weight="700" fill="#261715">4 · Planner  (/planner)</text>
  <g transform="translate(610,650)">
    <rect x="0" y="0" width="540" height="470" fill="#f9ddc8" stroke="#7a3b30" stroke-width="1.5"/>
    <rect x="1.5" y="1.5" width="537" height="24" fill="#e8e8e8"/>
    <circle cx="16" cy="13" r="4" fill="#c0c0c0"/><circle cx="30" cy="13" r="4" fill="#c0c0c0"/><circle cx="44" cy="13" r="4" fill="#c0c0c0"/>
    <rect x="66" y="6" width="330" height="14" rx="7" fill="#fffaf6" stroke="#c8c8c8"/>
    <text x="76" y="16" font-size="9" fill="#7a6259">marketflow.app/planner</text>
    <rect x="1.5" y="25.5" width="537" height="30" fill="#e24b3d"/>
    <text x="14" y="46" font-size="13" font-weight="700" fill="#fffaf6">▢ MarketFlow</text>
    <text x="250" y="45" font-size="10" fill="#ffe1d7">Dashboard · Products · Planner · About</text>
    <circle cx="518" cy="41" r="9" fill="#b9362d"/><text x="518" y="45" font-size="9" fill="#fffaf6" text-anchor="middle">2</text>

    <text x="14" y="80" font-size="16" font-weight="800" fill="#261715">Planner</text>
    <text x="14" y="96" font-size="9" fill="#7a6259">saved products via global Context (no prop-drilling) + localStorage persistence</text>
    <rect x="426" y="66" width="100" height="24" rx="4" fill="#fffaf6" stroke="#e24b3d"/><text x="476" y="82" font-size="9" fill="#e24b3d" text-anchor="middle">Clear saved</text>

    <!-- stat cards -->
    <rect x="14" y="106" width="164" height="50" rx="5" fill="#fffaf6" stroke="#efc8b4"/><text x="24" y="124" font-size="8" fill="#7a6259">Shortlist total</text><text x="24" y="146" font-size="15" font-weight="800" fill="#261715">$174.15</text>
    <rect x="190" y="106" width="160" height="50" rx="5" fill="#fffaf6" stroke="#efc8b4"/><text x="200" y="124" font-size="8" fill="#7a6259">Average rating</text><text x="200" y="146" font-size="15" font-weight="800" fill="#261715">4.2</text>
    <rect x="362" y="106" width="164" height="50" rx="5" fill="#fffaf6" stroke="#efc8b4"/><text x="372" y="124" font-size="8" fill="#7a6259">Highest price</text><text x="372" y="146" font-size="15" font-weight="800" fill="#261715">$109.95</text>

    <text x="14" y="184" font-size="11" font-weight="700" fill="#261715">Saved shortlist</text>
    <rect x="430" y="172" width="96" height="16" rx="8" fill="#c9835b"/><text x="478" y="183" font-size="8" fill="#fffaf6" text-anchor="middle">categories…</text>

    <!-- saved rows -->
    <g>
      <rect x="14" y="196" width="512" height="64" rx="5" fill="#fffaf6" stroke="#efc8b4"/>
      <rect x="26" y="206" width="44" height="44" rx="4" fill="#fff3eb" stroke="#e6c3ad" stroke-dasharray="4 3"/><text x="48" y="231" font-size="7" fill="#b08a76" text-anchor="middle">IMG</text>
      <rect x="82" y="210" width="60" height="14" rx="7" fill="#eaddd1"/><rect x="148" y="210" width="50" height="14" rx="7" fill="#c9835b"/>
      <rect x="82" y="232" width="200" height="9" rx="3" fill="#f1d8c6"/><text x="82" y="254" font-size="8" fill="#7a6259">★★★★  rating · reviews</text>
      <rect x="378" y="218" width="64" height="24" rx="4" fill="#fffaf6" stroke="#e24b3d"/><text x="410" y="234" font-size="8" fill="#e24b3d" text-anchor="middle">Details</text>
      <rect x="450" y="218" width="64" height="24" rx="4" fill="#fffaf6" stroke="#e24b3d"/><text x="482" y="234" font-size="8" fill="#e24b3d" text-anchor="middle">🗑 Remove</text>

      <rect x="14" y="268" width="512" height="64" rx="5" fill="#fffaf6" stroke="#efc8b4"/>
      <rect x="26" y="278" width="44" height="44" rx="4" fill="#fff3eb" stroke="#e6c3ad" stroke-dasharray="4 3"/><text x="48" y="303" font-size="7" fill="#b08a76" text-anchor="middle">IMG</text>
      <rect x="82" y="282" width="60" height="14" rx="7" fill="#eaddd1"/><rect x="148" y="282" width="50" height="14" rx="7" fill="#c9835b"/>
      <rect x="82" y="304" width="200" height="9" rx="3" fill="#f1d8c6"/><text x="82" y="326" font-size="8" fill="#7a6259">★★★★  rating · reviews</text>
      <rect x="378" y="290" width="64" height="24" rx="4" fill="#fffaf6" stroke="#e24b3d"/><text x="410" y="306" font-size="8" fill="#e24b3d" text-anchor="middle">Details</text>
      <rect x="450" y="290" width="64" height="24" rx="4" fill="#fffaf6" stroke="#e24b3d"/><text x="482" y="306" font-size="8" fill="#e24b3d" text-anchor="middle">🗑 Remove</text>
    </g>
    <text x="14" y="356" font-size="9" fill="#b08a76" font-style="italic">Empty state: "No saved products yet" + Browse products CTA</text>
  </g>

  <!-- ============================================================ -->
  <!-- 5 · ABOUT  (/about)                                           -->
  <!-- ============================================================ -->
  <text x="30" y="1160" font-size="13" font-weight="700" fill="#261715">5 · About  (/about)</text>
  <g transform="translate(30,1170)">
    <rect x="0" y="0" width="540" height="470" fill="#f9ddc8" stroke="#7a3b30" stroke-width="1.5"/>
    <rect x="1.5" y="1.5" width="537" height="24" fill="#e8e8e8"/>
    <circle cx="16" cy="13" r="4" fill="#c0c0c0"/><circle cx="30" cy="13" r="4" fill="#c0c0c0"/><circle cx="44" cy="13" r="4" fill="#c0c0c0"/>
    <rect x="66" y="6" width="330" height="14" rx="7" fill="#fffaf6" stroke="#c8c8c8"/>
    <text x="76" y="16" font-size="9" fill="#7a6259">marketflow.app/about</text>
    <rect x="1.5" y="25.5" width="537" height="30" fill="#e24b3d"/>
    <text x="14" y="46" font-size="13" font-weight="700" fill="#fffaf6">▢ MarketFlow</text>
    <text x="250" y="45" font-size="10" fill="#ffe1d7">Dashboard · Products · Planner · About</text>
    <circle cx="518" cy="41" r="9" fill="#b9362d"/><text x="518" y="45" font-size="9" fill="#fffaf6" text-anchor="middle">2</text>

    <rect x="14" y="66" width="120" height="16" rx="8" fill="#c9835b"/><text x="74" y="77" font-size="8" fill="#fffaf6" text-anchor="middle">Presentation guide</text>
    <text x="14" y="104" font-size="16" font-weight="800" fill="#261715">How the app is built</text>
    <text x="14" y="120" font-size="9" fill="#7a6259">explains the project for the 5–10 minute presentation</text>

    <!-- 2x2 cards -->
    <rect x="14" y="134" width="250" height="146" rx="5" fill="#fffaf6" stroke="#efc8b4"/><text x="26" y="156" font-size="12" font-weight="700" fill="#261715">Process</text><rect x="26" y="168" width="220" height="8" rx="3" fill="#f1d8c6"/><rect x="26" y="184" width="210" height="8" rx="3" fill="#f1d8c6"/><rect x="26" y="200" width="180" height="8" rx="3" fill="#f1d8c6"/>
    <rect x="276" y="134" width="250" height="146" rx="5" fill="#fffaf6" stroke="#efc8b4"/><text x="288" y="156" font-size="12" font-weight="700" fill="#261715">Data</text><rect x="288" y="168" width="220" height="8" rx="3" fill="#f1d8c6"/><rect x="288" y="184" width="210" height="8" rx="3" fill="#f1d8c6"/><rect x="288" y="200" width="180" height="8" rx="3" fill="#f1d8c6"/>
    <rect x="14" y="296" width="250" height="146" rx="5" fill="#fffaf6" stroke="#efc8b4"/><text x="26" y="318" font-size="12" font-weight="700" fill="#261715">Interaction</text><rect x="26" y="330" width="220" height="8" rx="3" fill="#f1d8c6"/><rect x="26" y="346" width="210" height="8" rx="3" fill="#f1d8c6"/><rect x="26" y="362" width="180" height="8" rx="3" fill="#f1d8c6"/>
    <rect x="276" y="296" width="250" height="146" rx="5" fill="#fffaf6" stroke="#efc8b4"/><text x="288" y="318" font-size="12" font-weight="700" fill="#261715">Hooks</text><rect x="288" y="330" width="220" height="8" rx="3" fill="#f1d8c6"/><rect x="288" y="346" width="210" height="8" rx="3" fill="#f1d8c6"/><rect x="288" y="362" width="180" height="8" rx="3" fill="#f1d8c6"/>
  </g>

  <!-- ============================================================ -->
  <!-- KEY & COMPONENT HIERARCHY                                     -->
  <!-- ============================================================ -->
  <text x="610" y="1160" font-size="13" font-weight="700" fill="#261715">Key &amp; Component Hierarchy</text>
  <g transform="translate(610,1170)">
    <rect x="0" y="0" width="540" height="470" fill="#f9ddc8" stroke="#7a3b30" stroke-width="1.5"/>

    <text x="20" y="34" font-size="13" font-weight="800" fill="#261715">Wireframe key</text>
    <rect x="20" y="46" width="40" height="22" rx="3" fill="#fff3eb" stroke="#e6c3ad" stroke-dasharray="5 3"/><text x="70" y="61" font-size="10" fill="#7a6259">Image / media placeholder</text>
    <rect x="20" y="76" width="40" height="22" rx="4" fill="#e24b3d"/><text x="70" y="91" font-size="10" fill="#7a6259">Primary button / CTA</text>
    <rect x="20" y="106" width="40" height="22" rx="4" fill="#fffaf6" stroke="#e24b3d"/><text x="70" y="121" font-size="10" fill="#7a6259">Secondary / outline button</text>
    <rect x="20" y="136" width="40" height="16" rx="8" fill="#eaddd1"/><text x="70" y="148" font-size="10" fill="#7a6259">Chip / tag / category</text>
    <rect x="20" y="162" width="40" height="8" rx="3" fill="#f1d8c6"/><text x="70" y="170" font-size="10" fill="#7a6259">Text content / label</text>

    <line x1="20" y1="190" x2="520" y2="190" stroke="#efc8b4"/>

    <text x="20" y="214" font-size="13" font-weight="800" fill="#261715">Component hierarchy</text>
    <g font-family="Courier New, monospace" font-size="11" fill="#4a3a34">
      <text x="20" y="236">App  (Routes)</text>
      <text x="20" y="254">└─ AppProvider          ← Context: savedProductIds</text>
      <text x="20" y="272">   └─ Layout             ← AppBar + nav + Outlet</text>
      <text x="20" y="290">      ├─ DashboardPage    ← StatCard, ProductGrid</text>
      <text x="20" y="308">      ├─ ProductsPage     ← ProductControls,</text>
      <text x="20" y="324">      │                     ProductGrid → ProductCard</text>
      <text x="20" y="342">      ├─ ProductDetailPage ← ProductReviewForm</text>
      <text x="20" y="360">      ├─ PlannerPage      ← saved-item rows</text>
      <text x="20" y="378">      └─ AboutPage</text>
    </g>
    <line x1="20" y1="394" x2="520" y2="394" stroke="#efc8b4"/>
    <text x="20" y="416" font-size="11" fill="#4a3a34"><tspan font-weight="700">Hooks:</tspan>  useState · useEffect · useContext · useMemo · useParams · useSearchParams</text>
    <text x="20" y="436" font-size="11" fill="#4a3a34"><tspan font-weight="700">Custom hook:</tspan>  useProducts()  → Axios fetch of fakestoreapi.com/products</text>
    <text x="20" y="456" font-size="11" fill="#4a3a34"><tspan font-weight="700">Tools:</tspan>  React 19 · Vite · React Router · Material UI · Axios</text>
  </g>
</svg>
